<svg height="512pt" viewBox="0 0 512 512" width="512pt" xmlns="http://www.w3.org/2000/svg"><path d="m512 256c0 141.386719-114.613281 256-256 256s-256-114.613281-256-256 114.613281-256 256-256 256 114.613281 256 256zm0 0" fill="#f4b147"/><path d="m477.878906 105.304688-16.867187-3.464844h-409.394531c-32.394532 42.882812-51.617188 96.273437-51.617188 154.160156 0 89.90625 46.355469 168.972656 116.460938 214.640625h68.777343c4.246094 0 8.164063 2.398437 9.988281 6.238281 6.246094 13.148438 19.644532 22.242188 35.171876 22.242188 15.644531 0 29.125-9.230469 35.3125-22.539063 1.664062-3.574219 5.160156-5.9375 9.105468-5.9375h182.5625c17.96875 0 32.53125-14.566406 32.53125-32.535156v-318.046875c.003906-7.152344-5.027344-13.320312-12.03125-14.757812zm0 0" fill="#514e87"/><path d="m116.460938 470.644531h35.96875c-5.371094-3.167969-8.988282-9-8.988282-15.6875 0-10.0625 8.15625-18.214843 18.21875-18.214843h-86.929687c12.660156 12.695312 26.640625 24.074218 41.730469 33.902343zm0 0" fill="#3e3c76"/><path d="m454.488281 63.769531-107.78125-22.640625c-40.332031-7.371094-81.953125 1.167969-116.125 23.832032v376.78125h220.726563c5.359375 0 9.703125-4.34375 9.703125-9.703126v-360.449218c0-3.839844-2.746094-7.128906-6.523438-7.820313zm0 0" fill="#ebdde2"/><path d="m0 256c0 73.128906 30.667969 139.09375 79.839844 185.742188h150.742187v-376.78125c-33.273437-22.070313-73.617187-30.742188-112.957031-24.371094-70.757812 45.546875-117.625 125.003906-117.625 215.410156zm0 0" fill="#dbd1d5"/><path d="m117.625 40.589844c-70.757812 45.546875-117.625 125.003906-117.625 215.410156v.011719c.00390625 73.125 30.671875 139.082031 79.839844 185.730469h78.679687v-346.136719c0-20.179688 13.292969-37.945313 32.65625-43.632813l9.128907-2.6875c-44.03125-17.082031-80.601563-8.71875-82.679688-8.695312zm0 0" fill="#b7b3ba"/><path d="m460.914062 433.335938c-.5-3.3125-3.046874-6.011719-6.425781-6.628907l-107.78125-22.640625c-40.332031-7.371094-81.953125 1.167969-116.125 23.832032v13.84375h220.726563c4.917968 0 8.972656-3.664063 9.605468-8.40625zm0 0" fill="#dbd1d5"/><path d="m114.460938 404.066406-58.160157 12.097656c7.269531 9.046876 15.128907 17.597657 23.539063 25.578126h150.742187v-13.84375c-34.167969-22.664063-75.789062-31.203126-116.121093-23.832032zm0 0" fill="#b7b3ba"/><path d="m424.230469 126.921875-77.523438-16.285156c-24.296875-4.441407-49.0625-3.101563-72.382812 3.617187-1.875.539063-3.183594 2.238282-3.183594 4.191406v112.632813c0 2.878906 2.738281 4.941406 5.515625 4.1875 22.636719-6.148437 46.5625-7.257813 70.050781-2.964844l75.734375 15.910157c2.703125.566406 5.246094-1.496094 5.246094-4.257813v-112.777344c0-2.058593-1.441406-3.832031-3.457031-4.253906zm0 0" fill="#7272b5"/><path d="m302.289062 111.367188c0-.945313.296876-1.824219.785157-2.570313-9.730469.933594-19.359375 2.75-28.75 5.457031-1.875.539063-3.183594 2.238282-3.183594 4.191406v112.632813c0 2.878906 2.738281 4.941406 5.515625 4.1875 8.398438-2.28125 16.972656-3.863281 25.632812-4.738281zm0 0" fill="#514e87"/><g fill="#fff"><path d="m263.476562 285.074219c-1.316406-4.230469 1.046876-8.734375 5.28125-10.050781.757813-.234376 1.519532-.464844 2.28125-.691407 4.253907-1.257812 8.714844 1.171875 9.972657 5.425781 1.257812 4.25-1.171875 8.714844-5.425781 9.972657-.6875.203125-1.375.410156-2.058594.625-4.199219 1.308593-8.722656-1.015625-10.050782-5.28125zm0 0"/><path d="m301.425781 284.507812c-4.394531.496094-8.378906-2.675781-8.875-7.082031-.492187-4.40625 2.675781-8.378906 7.082031-8.875 38.363282-4.3125 63.3125 5.789063 84.078126 9.140625 4.339843.910156 7.117187 5.167969 6.203124 9.503906-3.722656 17.726563-34.246093-8.792968-88.488281-2.6875zm0 0"/><path d="m426.035156 302.988281-16.925781-3.554687c-4.339844-.914063-7.117187-5.167969-6.207031-9.507813.910156-4.339843 5.164062-7.117187 9.507812-6.207031l16.925782 3.554688c4.339843.910156 7.117187 5.167968 6.207031 9.507812-.910157 4.328125-5.15625 7.121094-9.507813 6.207031zm0 0"/><path d="m427.695312 107.019531c-.546874 0-1.101562-.058593-1.660156-.175781l-13.5625-2.851562c-4.339844-.910157-7.121094-5.167969-6.207031-9.503907.914063-4.339843 5.171875-7.121093 9.507813-6.207031l13.5625 2.851562c4.339843.910157 7.117187 5.167969 6.207031 9.503907-.792969 3.785156-4.132813 6.382812-7.847657 6.382812zm0 0"/><path d="m263.476562 317.980469c-1.316406-4.234375 1.046876-8.734375 5.28125-10.050781.757813-.238282 1.519532-.464844 2.28125-.691407 4.253907-1.261719 8.714844 1.171875 9.972657 5.421875 1.257812 4.253906-1.171875 8.71875-5.425781 9.976563-.6875.203125-1.375.410156-2.058594.621093-4.199219 1.308594-8.722656-1.011718-10.050782-5.277343zm0 0"/><path d="m301.425781 317.410156c-4.394531.511719-8.378906-2.675781-8.875-7.082031-.492187-4.40625 2.675781-8.378906 7.082031-8.875 38.382813-4.300781 63.371094 5.800781 84.078126 9.140625 4.339843.910156 7.117187 5.167969 6.203124 9.507812-3.71875 17.71875-34.210937-8.78125-88.488281-2.691406zm0 0"/><path d="m426.035156 335.890625-16.925781-3.554687c-4.339844-.910157-7.117187-5.167969-6.207031-9.507813s5.171875-7.117187 9.507812-6.207031l16.925782 3.558594c4.339843.910156 7.117187 5.167968 6.207031 9.507812-.910157 4.328125-5.15625 7.117188-9.507813 6.203125zm0 0"/><path d="m263.472656 350.875c-1.3125-4.238281 1.058594-8.734375 5.292969-10.042969.757813-.234375 1.511719-.464843 2.269531-.6875 4.257813-1.261719 8.71875 1.171875 9.976563 5.421875 1.253906 4.253906-1.175781 8.71875-5.425781 9.972656-.691407.207032-1.382813.414063-2.070313.628907-4.207031 1.308593-8.726563-1.039063-10.042969-5.292969zm0 0"/><path d="m301.417969 350.316406c-4.386719.507813-8.378907-2.675781-8.875-7.082031-.496094-4.40625 2.675781-8.378906 7.082031-8.875 38.308594-4.304687 62.929688 5.660156 82.1875 8.742187 4.339844.910157 7.117188 5.167969 6.207031 9.503907-3.667969 17.457031-32.9375-8.316407-86.601562-2.289063zm0 0"/><path d="m426.035156 368.796875-16.925781-3.554687c-4.339844-.910157-7.117187-5.167969-6.207031-9.507813.910156-4.335937 5.164062-7.121094 9.507812-6.207031l16.925782 3.558594c4.339843.910156 7.117187 5.167968 6.207031 9.503906-.910157 4.332031-5.15625 7.121094-9.507813 6.207031zm0 0"/></g><path d="m357.308594 175.734375c-.257813 0-.519532-.015625-.785156-.039063-4.414063-.429687-7.640626-4.355468-7.214844-8.769531l.957031-9.828125c.429687-4.414062 4.351563-7.652344 8.765625-7.214844 4.414062.429688 7.644531 4.355469 7.214844 8.769532l-.957032 9.828125c-.402343 4.148437-3.894531 7.253906-7.980468 7.253906zm0 0" fill="#f4b147"/><path d="m36.398438 126.921875 77.527343-16.285156c24.296875-4.441407 49.058594-3.101563 72.378907 3.617187 1.878906.539063 3.183593 2.238282 3.183593 4.191406v112.632813c0 2.878906-2.734375 4.941406-5.515625 4.1875-22.632812-6.148437-46.558594-7.257813-70.046875-2.964844l-75.738281 15.910157c-2.703125.566406-5.242188-1.496094-5.242188-4.257813v-112.777344c0-2.058593 1.441407-3.832031 3.453126-4.253906zm0 0" fill="#fc5e6a"/><path d="m158.519531 108.886719c-14.75-1.507813-29.757812-.960938-44.59375 1.75l-77.527343 16.285156c-.898438.1875-1.675782.65625-2.269532 1.292969-.339844.585937-.667968 1.175781-1 1.761718-.113281.382813-.183594.785157-.183594 1.199219v112.777344c0 2.761719 2.539063 4.824219 5.242188 4.257813l75.738281-15.910157c14.835938-2.710937 29.84375-3.265625 44.59375-1.757812zm0 0" fill="#fb363d"/><path d="m38.1875 215.597656 75.738281-15.910156c23.488281-4.292969 47.414063-3.183594 70.046875 2.964844 2.777344.753906 5.515625-1.308594 5.515625-4.1875v32.613281c0 2.878906-2.734375 4.941406-5.515625 4.1875-22.632812-6.148437-46.558594-7.257813-70.046875-2.964844l-75.738281 15.910157c-2.703125.566406-5.242188-1.496094-5.242188-4.257813v-32.613281c0 2.761718 2.539063 4.824218 5.242188 4.257812zm0 0" fill="#fb363d"/><path d="m158.519531 197.933594c-14.75-1.507813-29.757812-.957032-44.59375 1.753906l-75.738281 15.910156c-2.703125.566406-5.242188-1.496094-5.242188-4.257812v32.613281c0 2.761719 2.539063 4.824219 5.242188 4.257813l75.738281-15.910157c14.835938-2.710937 29.84375-3.261719 44.59375-1.753906zm0 0" fill="#e1212c"/><path d="m25.082031 296.707031c-2.179687-10.507812 14.628907-13.980469 16.804688-3.488281 2.167969 10.433594-14.605469 14.070312-16.804688 3.488281zm0 0" fill="#dbd1d5"/><path d="m60.296875 297.414062c-3.726563 0-7.066406-2.605468-7.851563-6.394531-.90625-4.339843 1.882813-8.589843 6.222657-9.492187 39.175781-7.125 58.886719-15.355469 91.835937-13.847656 4.429688.203124 7.855469 3.957031 7.65625 8.382812-.203125 4.429688-3.914062 7.847656-8.382812 7.65625-29.890625-1.355469-46.214844 5.894531-87.839844 13.527344-.550781.113281-1.101562.167968-1.640625.167968zm0 0" fill="#dbd1d5"/><path d="m187.132812 290.195312c-3.808593-1.171874-7.703124-2.199218-11.585937-3.058593-4.328125-.960938-7.058594-5.246094-6.097656-9.574219.957031-4.328125 5.246093-7.058594 9.574219-6.101562 4.296874.953124 8.609374 2.09375 12.820312 3.386718 4.238281 1.300782 6.621094 5.789063 5.320312 10.027344-1.292968 4.210938-5.765624 6.628906-10.03125 5.320312zm0 0" fill="#ebdde2"/><path d="m127.554688 177.015625c-2.644532.5625-5.210938.347656-7.519532-.464844-1.726562-.609375-3.640625-.554687-5.292968.238281-2.128907 1.03125-4.480469 1.691407-6.984376 1.886719-2.503906.191407-4.933593-.097656-7.195312-.785156-1.753906-.535156-3.65625-.289063-5.269531.574219-2.152344 1.15625-4.65625 1.765625-7.351563 1.613281-1.515625-.085937-2.976562-.429687-4.339844-.980469l7.328126 24.675782c1.234374 4.417968 5.421874 7.347656 10 6.996093l18.511718-1.433593c4.574219-.355469 8.261719-3.894532 8.800782-8.449219l3.445312-25.511719c-1.257812.757812-2.648438 1.320312-4.132812 1.640625zm0 0" fill="#dbd1d5"/><path d="m104.339844 210.503906 11.6875-.902344-.90625-32.96875c-.125.050782-.253906.097657-.378906.15625-2.128907 1.03125-4.480469 1.691407-6.984376 1.886719-2.503906.191407-4.929687-.097656-7.195312-.785156-.132812-.042969-.265625-.070313-.398438-.101563zm0 0" fill="#ebdde2"/><path d="m125.8125 149.800781c-1.289062-.085937-2.421875-.816406-3.160156-1.871093-3.914063-5.625-10.613282-9.089844-17.9375-8.523438-7.355469.566406-13.460938 5.058594-16.449219 11.257812-.535156 1.113282-1.5 1.976563-2.707031 2.238282-7.253906 1.566406-12.265625 8.667968-10.820313 16.378906 1.175781 6.265625 6.597657 11.027344 12.960938 11.386719 2.734375.15625 5.273437-.464844 7.457031-1.636719 1.636719-.878906 3.566406-1.125 5.34375-.585938 2.296875.699219 4.757812.996094 7.300781.796876 2.539063-.195313 4.925781-.867188 7.085938-1.910157 1.675781-.808593 3.617187-.859375 5.371093-.242187 2.339844.820312 4.945313 1.042968 7.625.46875 6.234376-1.335938 10.855469-6.878906 11.050782-13.253906.238281-7.808594-5.753906-14.027344-13.121094-14.503907zm0 0" fill="#f9cc7b"/><path d="m100.410156 166.773438c-1.445312-7.714844 3.566406-14.8125 10.820313-16.378907 1.207031-.261719 2.171875-1.125 2.707031-2.238281.933594-1.941406 2.175781-3.714844 3.667969-5.253906-3.640625-2.523438-8.128907-3.867188-12.890625-3.5-7.355469.570312-13.460938 5.0625-16.449219 11.261718-.535156 1.113282-1.503906 1.976563-2.707031 2.238282-7.253906 1.566406-12.265625 8.664062-10.820313 16.378906 1.175781 6.265625 6.597657 11.027344 12.960938 11.386719 2.734375.152343 5.273437-.464844 7.457031-1.636719 1.636719-.878906 3.566406-1.125 5.34375-.585938 2.296875.699219 4.757812.992188 7.300781.796876 1.816407-.140626 3.546875-.53125 5.183594-1.121094-6.195313-.527344-11.421875-5.210938-12.574219-11.347656zm0 0" fill="#f4b147"/><path d="m355.160156 163.421875c-19.59375-1.90625-37.515625 12.769531-43.414062 34.019531 11.621094-.472656 23.34375.324219 34.960937 2.449219l44.65625 9.378906c-.058593-23.835937-15.40625-43.824219-36.203125-45.847656zm0 0" fill="#f9cc7b"/><path d="m373.507812 170.722656c-5.300781-4.03125-11.527343-6.636718-18.347656-7.300781-19.59375-1.90625-37.515625 12.769531-43.414062 34.019531 10.347656-.421875 20.769531.171875 31.132812 1.800782 5.59375-14.683594 17.132813-25.476563 30.628906-28.519532zm0 0" fill="#f4b147"/><path d="m25.082031 329.851562c-2.179687-10.507812 14.628907-13.980468 16.804688-3.488281 2.167969 10.433594-14.605469 14.070313-16.804688 3.488281zm0 0" fill="#dbd1d5"/><path d="m60.296875 330.558594c-3.726563 0-7.066406-2.605469-7.851563-6.394532-.90625-4.339843 1.882813-8.589843 6.222657-9.492187 39.175781-7.125 58.886719-15.355469 91.835937-13.847656 4.429688.203125 7.855469 3.953125 7.65625 8.382812-.203125 4.429688-3.914062 7.847657-8.382812 7.65625-29.890625-1.355469-46.214844 5.894531-87.839844 13.527344-.550781.113281-1.101562.167969-1.640625.167969zm0 0" fill="#dbd1d5"/><path d="m187.132812 323.339844c-3.808593-1.171875-7.703124-2.199219-11.585937-3.058594-4.328125-.960938-7.058594-5.246094-6.097656-9.578125.957031-4.324219 5.246093-7.054687 9.574219-6.097656 4.296874.953125 8.609374 2.089843 12.820312 3.382812 4.238281 1.300781 6.621094 5.792969 5.320312 10.03125-1.292968 4.210938-5.765624 6.628907-10.03125 5.320313zm0 0" fill="#ebdde2"/><path d="m25.082031 362.757812c-2.179687-10.507812 14.628907-13.980468 16.804688-3.488281 2.167969 10.433594-14.605469 14.070313-16.804688 3.488281zm0 0" fill="#dbd1d5"/><path d="m60.296875 363.464844c-3.726563 0-7.066406-2.605469-7.851563-6.394532-.90625-4.339843 1.882813-8.589843 6.222657-9.496093 39.175781-7.121094 58.886719-15.351563 91.835937-13.84375 4.429688.203125 7.855469 3.953125 7.65625 8.382812-.203125 4.429688-3.914062 7.847657-8.382812 7.65625-29.890625-1.355469-46.214844 5.890625-87.839844 13.527344-.550781.113281-1.101562.167969-1.640625.167969zm0 0" fill="#dbd1d5"/><path d="m187.132812 356.242188c-3.808593-1.167969-7.703124-2.195313-11.585937-3.054688-4.328125-.960938-7.058594-5.25-6.097656-9.578125.957031-4.328125 5.246093-7.054687 9.574219-6.097656 4.296874.953125 8.609374 2.089843 12.820312 3.382812 4.238281 1.300781 6.621094 5.792969 5.320312 10.03125-1.292968 4.210938-5.765624 6.625-10.03125 5.316407zm0 0" fill="#ebdde2"/><path d="m158.519531 402.257812c-37.652343-3.710937-59.742187 6.46875-102.21875 13.90625 7.269531 9.046876 15.128907 17.597657 23.539063 25.578126h67.164062c-12.292968-13.261719-5.988281-34.921876 11.515625-39.484376zm0 0" fill="#adaaaf"/><path d="m422.441406 215.597656-75.734375-15.910156c-23.488281-4.292969-47.414062-3.183594-70.050781 2.964844-2.777344.753906-5.515625-1.308594-5.515625-4.1875v32.613281c0 2.878906 2.738281 4.941406 5.515625 4.1875 22.636719-6.148437 46.5625-7.257813 70.050781-2.964844l75.734375 15.910157c2.703125.566406 5.246094-1.496094 5.246094-4.257813v-32.613281c0 2.761718-2.542969 4.824218-5.246094 4.257812zm0 0" fill="#514e87"/><path d="m276.65625 235.265625c1.6875-.382813 11.746094-3.335937 25.632812-4.738281v-32.617188c-8.660156.875-17.234374 2.460938-25.632812 4.742188-2.773438.753906-5.511719-1.308594-5.515625-4.183594v32.609375c0 2.871094 2.734375 4.945313 5.515625 4.1875zm0 0" fill="#3e3c76"/></svg>